<?xml version="1.0" encoding="utf-8"?>
<!-- Generator: Adobe Illustrator 23.0.5, SVG Export Plug-In . SVG Version: 6.00 Build 0)  -->
<svg version="1.1" xmlns="http://www.w3.org/2000/svg" xmlns:xlink="http://www.w3.org/1999/xlink" x="0px" y="0px"
	 viewBox="0 0 1920 1080" style="enable-background:new 0 0 1920 1080;" xml:space="preserve">
<style type="text/css">
	.st0{fill:#4E7AC7;}
	.st1{fill:#35478C;}
</style>
<g id="Layer_3">
	<g>
		<path class="st0" d="M860.5,556.5c6.7-3.49,12.94-7.2,18.97-11.13c6.02-3.94,11.78-8.08,17.32-12.44
			c5.5-4.41,10.85-8.93,15.82-13.87c4.98-4.92,9.52-10.26,13.75-15.81c4.22-5.56,8.07-11.4,11.5-17.49
			c3.62-6.29,7.24-12.7,10.76-19.07c3.57-6.36,7.08-12.72,10.45-19.12c3.4-6.38,6.69-12.79,9.74-19.25
			c3.08-6.45,5.91-12.94,8.33-19.49c2.45-6.54,4.44-13.12,5.73-19.68c1.25-6.54,1.78-13.05,1.09-19.24c-0.33-3.1-0.9-6.13-1.85-9.03
			l-0.16-0.54c-0.01-0.02-0.02-0.04-0.02-0.06c0.01,0.03,0.05,0.13,0.1,0.19c0.03,0.06,0.1,0.2,0.16,0.28l0.1,0.14
			c0.03,0.04,0.07,0.09,0.15,0.2c0.14,0.19,0.3,0.37,0.47,0.54l0.35,0.33c0.15,0.13,0.3,0.26,0.46,0.38
			c0.16,0.12,0.33,0.23,0.5,0.32c0.22,0.14,0.47,0.29,0.72,0.4c0.51,0.25,1.01,0.39,1.63,0.55c0.58,0.15,1.27,0.16,1.77,0.16
			c0.51,0,1.07-0.08,1.53-0.2c0.35-0.07,0.7-0.18,1.03-0.33l0.38-0.17c0.1-0.04,0.19-0.09,0.28-0.14c0.75-0.46,0.8-0.57,0.88-0.65
			c0.02-0.02-0.02,0.03-0.04,0.04c-0.03,0.02-0.1,0.12-0.15,0.18c-0.25,0.32-0.59,0.8-0.95,1.4c-0.72,1.17-1.46,2.61-2.18,4.09
			c-0.72,1.49-1.42,3.06-2.1,4.66c-1.36,3.2-2.65,6.51-3.9,9.87c-2.49,6.71-4.82,13.59-7.07,20.5
			c-4.49,13.84-8.67,27.86-12.73,41.92c-8.12,28.13-15.87,56.44-23.33,84.83l-11.15,42.6l-10.98,42.72
			c-7.33,28.39-14.56,56.85-20.99,85.45c-3.2,14.3-6.25,28.63-8.81,43.01l-3.85,21.51c-0.63,3.58-1.26,7.15-1.76,10.73
			c-0.28,1.8-0.46,3.58-0.56,5.38c-0.06,0.9-0.07,1.79,0,2.68c0.05,0.9,0.2,1.77,0.58,2.63c0.01,0.01,0,0.03-0.01,0.04
			c-0.01,0.01-0.02,0-0.03,0c-0.73-0.61-1.24-1.49-1.65-2.37c-0.39-0.89-0.69-1.81-0.95-2.74c-0.48-1.86-0.81-3.75-1.03-5.63
			c-0.45-3.77-0.55-7.53-0.49-11.27c0.09-7.48,0.89-14.87,1.9-22.2c2.06-14.66,4.58-29.19,7.27-43.7c2.7-14.5,5.59-28.95,8.59-43.37
			c2.99-14.43,6.16-28.81,9.47-43.17l9.7-43.01c3.27-14.35,6.6-28.69,10.09-42.99c6.96-28.61,14.05-57.2,21.84-85.67
			c3.92-14.23,7.96-28.44,12.38-42.62c2.22-7.09,4.51-14.18,7.05-21.27c1.27-3.55,2.6-7.1,4.07-10.69c0.74-1.79,1.51-3.59,2.36-5.42
			c0.86-1.83,1.77-3.68,2.94-5.66c0.57-0.98,1.25-2.03,2.12-3.17c0.24-0.3,0.44-0.57,0.72-0.89c0.3-0.33,0.55-0.63,0.89-0.98
			c0.74-0.71,1.47-1.45,3.03-2.36l0.58-0.31c0.17-0.09,0.4-0.2,0.7-0.32c0.55-0.22,1.11-0.41,1.68-0.55
			c1.42-0.32,2.94-0.42,4.66-0.05c0.85,0.17,1.55,0.44,2.27,0.78c0.35,0.17,0.71,0.36,1.03,0.55c0.26,0.17,0.52,0.35,0.77,0.54
			s0.5,0.39,0.73,0.59c0.26,0.22,0.46,0.41,0.6,0.57c0.32,0.34,0.63,0.69,0.92,1.06c0.16,0.2,0.26,0.34,0.35,0.48l0.29,0.44
			c0.18,0.28,0.38,0.61,0.52,0.87c0.24,0.47,0.49,0.99,0.68,1.43l0.46,1.23l0.24,0.78c1.35,4.08,2.2,8.3,2.68,12.51
			c0.99,8.43,0.32,16.74-1.11,24.63c-1.49,7.88-3.71,15.43-6.38,22.67c-2.68,7.24-5.71,14.24-8.97,21.05
			c-3.29,6.8-6.76,13.45-10.35,19.99c-3.63,6.52-7.35,12.95-11.14,19.32c-3.84,6.36-7.67,12.61-11.63,18.92
			c-4.12,6.53-8.72,12.76-13.7,18.65c-4.99,5.89-10.43,11.4-16.24,16.46c-5.81,5.06-11.97,9.73-18.58,13.65
			c-6.62,3.9-13.62,7.13-20.89,9.48c-3.64,1.16-7.34,2.11-11.09,2.79C868.11,556.19,864.31,556.64,860.5,556.5z"/>
	</g>
	<g>
		<path class="st1" d="M1035.5,481.5c-3.8,1.03-7.58,2.07-11.35,3.14c-3.77,1.05-7.54,2.14-11.29,3.25
			c-7.52,2.15-14.99,4.42-22.42,6.78c-7.43,2.35-14.8,4.91-22.1,7.61c-7.3,2.68-14.54,5.53-21.69,8.5
			c-14.32,5.92-28.33,12.35-42.06,18.89c-13.73,6.54-27.17,13.27-40.03,20.53c-12.83,7.24-24.91,15.46-35.05,24.87
			c-5.02,4.72-9.62,9.69-13.31,14.97l-1.37,1.98c-0.45,0.66-0.84,1.34-1.26,2.01c-0.88,1.33-1.55,2.72-2.33,4.06
			c-0.11,0.19-0.14,0.28-0.2,0.4l-0.16,0.34c-0.11,0.23-0.23,0.45-0.28,0.62c-0.06,0.18-0.16,0.38-0.21,0.53
			c-0.03,0.13-0.07,0.26-0.11,0.38c-0.1,0.39,0.05,0.27-0.01-0.61c-0.05-0.41-0.15-1.01-0.38-1.58c-0.12-0.27-0.2-0.57-0.38-0.81
			c-0.12-0.24-0.25-0.47-0.42-0.65c-0.55-0.74-0.79-0.78-0.46-0.61c0.35,0.18,1.15,0.52,2.17,0.84c0.99,0.33,2.34,0.61,3.68,0.88
			c2.8,0.51,6.01,0.83,9.36,0.99c3.36,0.16,6.86,0.17,10.42,0.06c14.31-0.45,29.32-2.35,44.23-4.8c29.91-4.99,59.94-12,89.62-20.16
			c29.73-8.06,59.2-17.3,88.19-27.71c14.49-5.21,28.86-10.73,43.02-16.62c14.15-5.9,28.12-12.16,41.65-18.99
			c6.76-3.41,13.41-6.98,19.85-10.75c6.42-3.77,12.68-7.72,18.48-11.94c5.77-4.2,11.19-8.73,15.21-13.3
			c2.02-2.26,3.54-4.55,4.4-6.34c0.45-0.9,0.62-1.61,0.73-2.09c0.06-0.16,0.1-0.66,0.12-0.97c0.02-0.34,0-0.62-0.01-0.87
			c-0.05-0.5-0.13-0.83-0.31-1.24c-0.18-0.4-0.47-0.88-1-1.47c-1.06-1.18-3.03-2.64-5.55-3.92c-2.52-1.29-5.51-2.44-8.7-3.41
			c-3.2-0.98-6.59-1.81-10.08-2.51c-7-1.4-14.35-2.35-21.79-3.04c-7.45-0.69-15.03-1.11-22.65-1.38
			c-30.52-1.11-61.61-0.01-92.72,1.23c-31.15,1.22-62.39,2.96-93.97,3.48c-7.9,0.12-15.83,0.15-23.81-0.02
			c-7.99-0.17-16.02-0.52-24.22-1.37c-4.11-0.43-8.25-0.99-12.53-1.86c-2.13-0.43-4.31-0.96-6.55-1.63
			c-2.24-0.68-4.54-1.51-6.99-2.73c-2.42-1.25-5.1-2.83-7.66-5.85c-0.31-0.36-0.62-0.75-0.91-1.19c-0.3-0.45-0.57-0.82-0.87-1.35
			c-0.3-0.56-0.58-1.13-0.84-1.71c-0.25-0.58-0.45-1.26-0.63-1.91c-0.71-2.64-0.55-5.49,0.08-7.7c0.32-1.02,0.7-2.12,1.13-2.92
			c0.21-0.42,0.43-0.88,0.66-1.25l0.68-1.08c0.47-0.74,0.93-1.27,1.41-1.91c0.47-0.56,0.94-1.08,1.42-1.6
			c1.89-1.97,3.76-3.48,5.61-4.85c3.7-2.71,7.37-4.86,11.05-6.84c3.68-1.97,7.36-3.75,11.05-5.43c7.38-3.35,14.81-6.29,22.26-9.07
			c14.91-5.54,29.93-10.36,45.02-14.91c15.09-4.53,30.24-8.71,45.46-12.64c15.21-3.94,30.48-7.59,45.81-11
			c30.65-6.8,61.52-12.66,92.68-16.94c15.59-2.11,31.26-3.8,47.1-4.51c7.92-0.29,15.91-0.52,23.99,0.78c4.02,0.67,8.11,1.59,12,3.71
			c0.96,0.58,1.92,1.17,2.77,2.01c0.85,0.8,1.65,1.81,2.03,3.02c0.41,1.2,0.31,2.47-0.03,3.51c-0.1,0.26-0.19,0.51-0.3,0.76
			c-0.13,0.24-0.27,0.46-0.41,0.68c-0.25,0.45-0.62,0.83-0.93,1.22c0.2-0.99,0.38-1.96,0.28-2.85c-0.08-0.89-0.41-1.63-0.89-2.18
			c-0.46-0.56-1.12-0.96-1.85-1.28c-0.71-0.33-1.54-0.57-2.37-0.77c-3.41-0.74-7.17-0.83-10.91-0.85c-3.76-0.01-7.55,0.15-11.37,0.3
			c-3.81,0.17-7.65,0.4-11.48,0.74c-15.35,1.34-30.7,3.75-45.99,6.42c-15.3,2.67-30.53,5.81-45.73,9.1
			c-15.2,3.3-30.34,6.9-45.44,10.64c-30.17,7.57-60.19,15.83-89.7,25.37c-14.75,4.77-29.37,9.89-43.63,15.57
			c-7.12,2.85-14.16,5.85-20.94,9.12c-3.38,1.64-6.7,3.34-9.87,5.14c-3.16,1.79-6.19,3.7-8.74,5.68c-1.27,0.98-2.41,1.99-3.2,2.87
			l-0.51,0.61c-0.09,0.16-0.28,0.36-0.31,0.46c-0.19,0.27-0.09,0.3-0.04,0.02c0.13-0.32,0.23-1.17,0.02-1.92
			c-0.03-0.18-0.13-0.37-0.17-0.52c-0.04-0.14-0.1-0.28-0.18-0.4c-0.06-0.1-0.03-0.09-0.06-0.13c-0.04-0.03-0.03-0.04-0.01-0.04
			l0.45,0.32c0.33,0.2,0.73,0.45,1.29,0.69c1.07,0.49,2.46,0.97,3.97,1.38c1.52,0.41,3.15,0.76,4.86,1.05
			c3.4,0.59,7.02,0.98,10.69,1.26c7.37,0.54,14.97,0.66,22.6,0.6c7.64-0.07,15.34-0.32,23.06-0.66c30.9-1.43,62.03-4.07,93.29-6.22
			c15.64-1.09,31.32-2.05,47.08-2.76c15.76-0.69,31.6-1.15,47.6-0.93c8,0.14,16.04,0.43,24.16,1.04c8.12,0.61,16.31,1.5,24.67,3.01
			c4.18,0.77,8.41,1.71,12.71,2.94c4.3,1.23,8.68,2.77,13.17,4.94c4.46,2.19,9.15,5.05,13.48,9.56c2.15,2.25,4.16,4.98,5.7,8.09
			c1.56,3.1,2.6,6.56,3.03,9.94c0.21,1.69,0.31,3.36,0.27,4.98c-0.04,1.64-0.13,3.1-0.43,4.86c-0.55,3.36-1.54,6.42-2.73,9.06
			c-1.2,2.64-2.55,5.07-4,7.19c-0.71,1.12-1.46,2.07-2.2,3.11c-0.76,0.95-1.51,1.95-2.29,2.84c-6.21,7.26-12.86,12.81-19.61,17.93
			c-13.53,10.12-27.59,18.22-41.79,25.83c-14.22,7.55-28.66,14.38-43.23,20.8c-14.57,6.41-29.28,12.38-44.09,18.05
			c-29.63,11.29-59.65,21.37-90.08,30.27c-15.24,4.39-30.58,8.46-46.06,12.16c-15.48,3.72-31.12,6.96-47,9.63
			c-7.95,1.31-15.96,2.46-24.08,3.37c-8.13,0.91-16.36,1.58-24.85,1.76c-4.25,0.09-8.56,0.06-13.01-0.19
			c-4.45-0.25-9.03-0.7-13.91-1.63c-2.48-0.52-4.97-1.07-7.68-1.98c-2.7-0.9-5.53-2.02-8.58-3.77c-3.04-1.78-6.41-4.28-9.35-8.12
			c-0.72-1-1.41-2.02-2.04-3.1c-0.59-1.13-1.19-2.26-1.64-3.46c-0.92-2.39-1.51-4.9-1.73-7.26c-0.46-4.77,0.29-8.83,1.27-12.18
			c0.26-0.81,0.53-1.61,0.8-2.4c0.28-0.77,0.59-1.46,0.89-2.19c0.3-0.74,0.62-1.39,0.95-2.04l0.49-0.98
			c0.16-0.32,0.34-0.68,0.47-0.9c1.17-2.03,2.3-4.12,3.6-6.04c0.64-0.97,1.25-1.97,1.92-2.91l2.02-2.8
			c5.43-7.42,11.66-13.84,18.13-19.68c6.5-5.83,13.38-10.9,20.39-15.58c7.02-4.66,14.2-8.89,21.5-12.73
			c14.61-7.68,29.77-13.68,45.17-18.45c7.71-2.35,15.47-4.44,23.28-6.24c7.81-1.8,15.64-3.38,23.48-4.81
			c7.84-1.42,15.68-2.71,23.51-3.92c7.84-1.18,15.66-2.29,23.48-3.36C1004.11,483.84,1019.76,482.06,1035.5,481.5z"/>
	</g>
</g>
<g id="Layer_4">
</g>
</svg>
